<?xml version="1.0" standalone="no"?>
<!DOCTYPE svg PUBLIC "-//W3C//DTD SVG 20010904//EN"
 "http://www.w3.org/TR/2001/REC-SVG-20010904/DTD/svg10.dtd">
<svg version="1.0" xmlns="http://www.w3.org/2000/svg"
 width="530.000000pt" height="502.000000pt" viewBox="0 0 530.000000 502.000000"
 preserveAspectRatio="xMidYMid meet">
<metadata>
Created by potrace 1.16, written by Peter Selinger 2001-2019
</metadata>
<g transform="translate(0.000000,502.000000) scale(0.100000,-0.100000)"
fill="#000000" stroke="none">
<path d="M3320 2920 l0 -200 40 0 40 0 0 90 c0 105 15 130 75 130 47 0 55 -20
55 -129 l0 -91 40 0 40 0 0 105 c0 112 -12 155 -49 175 -30 15 -113 12 -139
-6 l-22 -15 0 70 0 71 -40 0 -40 0 0 -200z"/>
<path d="M2267 2958 c78 -245 71 -233 123 -233 l45 0 37 105 c20 58 39 114 43
125 4 14 18 -15 49 -105 l43 -125 44 -3 44 -3 59 178 c32 98 61 184 63 191 4
8 -7 12 -35 12 l-41 0 -43 -130 c-23 -71 -45 -130 -48 -130 -3 0 -23 58 -45
128 l-41 127 -40 3 -39 3 -43 -131 c-24 -71 -45 -130 -47 -130 -3 0 -23 59
-45 130 l-41 130 -44 0 -43 0 45 -142z"/>
<path d="M5000 3035 c0 -28 -4 -35 -20 -35 -16 0 -20 -7 -20 -30 0 -23 4 -30
20 -30 18 0 20 -7 20 -70 0 -110 31 -150 113 -150 46 0 59 12 51 44 -5 23 -11
26 -30 22 -38 -10 -54 17 -54 90 l0 64 40 0 c38 0 40 2 40 29 0 27 -3 30 -37
33 -35 3 -38 6 -41 36 -3 30 -6 32 -43 32 -38 0 -39 -1 -39 -35z"/>
<path d="M2870 2865 l0 -145 40 0 40 0 0 145 0 145 -40 0 -40 0 0 -145z"/>
<path d="M3059 2995 c-72 -39 -53 -137 30 -151 52 -8 101 -24 101 -33 0 -31
-68 -41 -124 -17 -32 13 -34 13 -45 -10 -17 -38 -15 -41 40 -54 107 -26 191 6
197 74 4 51 -18 73 -88 87 -69 13 -85 22 -77 43 7 18 86 23 116 6 15 -7 21 -4
30 18 11 22 10 28 -5 39 -24 17 -142 16 -175 -2z"/>
<path d="M3690 2865 l0 -145 40 0 40 0 0 145 0 145 -40 0 -40 0 0 -145z"/>
<path d="M3852 2868 l3 -143 40 0 40 0 5 98 c5 107 12 119 65 115 41 -4 55
-36 55 -135 l0 -83 40 0 40 0 0 93 c0 104 12 127 63 127 47 0 57 -22 57 -126
l0 -94 40 0 40 0 0 99 c0 111 -11 153 -45 175 -36 24 -116 21 -149 -5 l-26
-20 -26 20 c-33 26 -109 28 -142 5 -20 -14 -22 -14 -22 0 0 12 -10 16 -40 16
l-41 0 3 -142z"/>
<path d="M4442 2995 c-33 -14 -33 -15 -16 -40 12 -18 22 -24 33 -19 38 17 92
16 111 -1 36 -32 25 -42 -51 -47 -63 -3 -74 -7 -95 -31 -30 -35 -30 -68 -1
-102 29 -35 104 -46 141 -21 31 20 36 20 36 1 0 -10 11 -15 35 -15 l35 0 0
111 0 111 -34 34 c-32 32 -38 34 -97 34 -35 -1 -79 -7 -97 -15z"/>
<path d="M4750 2865 l0 -145 39 0 39 0 4 91 c4 81 7 94 27 110 13 11 34 19 47
19 21 0 24 5 24 35 0 31 -3 35 -25 35 -14 0 -37 -7 -50 -16 -23 -15 -25 -15
-25 0 0 12 -10 16 -40 16 l-40 0 0 -145z"/>
</g>
</svg>
